pppppppppppppppp       TTTTTTTTTTTTTTTTTTTTTTTTTTTTT
pppppppp       pp      TTTTTTTTTTTTTTTTTTTTTTTTTTTTT    
pppppppp        pp     TT        TTTTTT           TT     
pppppppp         pp    TT        TTTTTT           TT 
pppppppp         pp    T         TTTTTT            T
pppppppp         pp              TTTTTT
pppppppp         pp              TTTTTT
pppppppp        pp               TTTTTT
pppppppp       pp                TTTTTT
pppppppppppppppp                 TTTTTT
pppppppp                         TTTTTT
pppppppp                         TTTTTT
pppppppp                         TTTTTT
pppppppp                         TTTTTT 
pppppppp        p     k   k ii   TTTTTT   EEEEEE     AA     M       M
pppppppp       p p    k  k  ii   TTTTTT   E          AA     MM     MM
pppppppp       p p    k k   ii   TTTTTT   E         AAAA    M M   M M
pppppppp       p p    kk    ii   TTTTTT   EEEEEE   A   A    M  M M  M
pppppppp      p   p   k k   ii   TTTTTT   E       AA   AA   M   M   M
pppppppp     pppppp   k  k  ii   TTTTTT   E       AAAAAAA   M       M 
pppppppp     p     p  k   k ii   TTTTTT   EEEEEE A      AA  M       M
..............................................................................
                       DrSeeder zahid657@gmail.com
..............................................................................
Complete name                            : F:\Dont.Be.Afraid.of.the.Dark.2011.Uncropped.HDRip.XVID.AC3.HQ\Dont.Be.Afraid.of.the.Dark.2011.Uncropped.HDRip.XVID.AC3.HQ.Hive-CM8.mkv
Format                                   : Matroska
Format version                           : Version 1
File size                                : 623 MiB
Duration                                 : 1h 39mn
Overall bit rate                         : 876 Kbps
Encoded date                             : UTC 2011-09-30 15:50:21
Writing application                      : AVSMatroskaFile
Writing library                          : libebml v0.7.7 + libmatroska v0.8.1

Video
ID                                       : 1
Format                                   : AVC
Format/Info                              : Advanced Video Codec
Format profile                           : High@L5.1
Format settings, CABAC                   : Yes
Format settings, ReFrames                : 1 frame
Codec ID                                 : V_MPEG4/ISO/AVC
Duration                                 : 1h 39mn
Bit rate                                 : 763 Kbps
Width                                    : 720 pixels
Height                                   : 394 pixels
Display aspect ratio                     : 16:9
Frame rate                               : 23.976 fps
Color space                              : YUV
Chroma subsampling                       : 4:2:0
Bit depth                                : 8 bits
Scan type                                : Progressive
Bits/(Pixel*Frame)                       : 0.112
Stream size                              : 542 MiB (87%)

Audio
ID                                       : 2
Format                                   : MPEG Audio
Format version                           : Version 1
Format profile                           : Layer 3
Codec ID                                 : A_MPEG/L3
Codec ID/Hint                            : MP3
Duration                                 : 1h 39mn
Bit rate mode                            : Constant
Bit rate                                 : 96.0 Kbps
Channel(s)                               : 2 channels
Sampling rate                            : 44.1 KHz
Compression mode                         : Lossy
Stream size                              : 68.2 MiB (11%)
Writing library                          : LAMELAME_MAJOR_VERSI